# xmcd CD database file
#
# Track frame offsets:
#	150
#	10800
#	25722
#	37877
#	49725
#	61575
#	70005
#	80922
#	91577
#	101550
#	113400
#	126850
#	134550
#	145665
#	154875
#	165465
#	175665
#	184580
#	197022
#	209247
#
# Disc length: 2918 seconds
#
# Revision: 6
# Processed by: cddbd v1.5.1PL0 Copyright (c) Steve Scherf et al.
# Submitted via: CDex 1.51
#
DISCID=030b6414
DTITLE=Various Artist - 20 Collector's Records Of The 50's and 60's Volume 2
DYEAR=1989
DGENRE=Rock
TTITLE0=Music Explosion - A Little Bit O' Soul
TTITLE1=Petula Clark - This Is My Song
TTITLE2=Coasters - Searchin'
TTITLE3=Drifters - Up On The Roof
TTITLE4=Dion and the Belmonts - A Teenager In Love
TTITLE5=Mystics - The White Cliffs Of Dover
TTITLE6=Tokens - Please Write
TTITLE7=Dion and the Belmonts - I Wonder Why
TTITLE8=Passions - I Only Want You
TTITLE9=Dean and Jean - Hey Dean Hey Jean
TTITLE10=Chifons - Up On The Bridge
TTITLE11=Four Epics - Again
TTITLE12=Reperata and the Delrons - Your Big Mistake
TTITLE13=Ray-Vons - Judy
TTITLE14=Dion and the Belmonts - Come Take A Walk With Me
TTITLE15=Ernie Maresca - Rockin Blvd. Street
TTITLE16=Demilles - Donna Lee
TTITLE17=Dion and the Belmonts - I Got The Blues
TTITLE18=Chifons - Just For Tonight
TTITLE19=Harps - Marie
EXTD=YEAR: 1989
EXTT0=
EXTT1=
EXTT2=
EXTT3=
EXTT4=
EXTT5=
EXTT6=
EXTT7=
EXTT8=
EXTT9=
EXTT10=
EXTT11=
EXTT12=
EXTT13=
EXTT14=
EXTT15=
EXTT16=
EXTT17=
EXTT18=
EXTT19=
PLAYORDER=
